<svg width="249" height="210" viewBox="0 0 249 210" fill="none" xmlns="http://www.w3.org/2000/svg">
<path fill-rule="evenodd" clip-rule="evenodd" d="M130.108 16.542L169.118 83.9106C169.972 85.3858 169.466 87.2728 167.988 88.1253L166.272 89.1147C164.793 89.9672 162.902 89.4623 162.048 87.9871L161.802 87.5628L128.594 94.5765V97.2477C128.594 106.768 120.823 114.522 111.283 114.522H109.991C102.109 114.522 95.4353 109.229 93.3532 102.021L84.08 103.983C84.1361 105.093 83.587 106.196 82.5604 106.799L80.8528 107.803C79.3814 108.667 77.4863 108.178 76.6199 106.71L64.428 86.0476C63.5617 84.5794 64.0521 82.6882 65.5235 81.8236L67.2312 80.8202C68.3025 80.1907 69.5985 80.279 70.5585 80.9403L123.765 21.8739L123.038 20.6186C122.184 19.1433 122.69 17.2563 124.168 16.4038L125.884 15.4144C127.362 14.5619 129.253 15.0668 130.108 16.542ZM104.636 99.6364C102.93 100.12 101.975 101.993 103.178 103.332C104.855 105.199 107.29 106.374 109.991 106.374H111.283C116.332 106.374 120.428 102.286 120.428 97.2477C120.428 96.7849 120.025 96.4331 119.575 96.4812L104.636 99.6364Z" fill="white"/>
<path d="M175.037 37.2834L174.045 35.5709C173.19 34.0957 171.299 33.5912 169.82 34.444L161.4 39.3013C159.922 40.1541 159.416 42.0414 160.271 43.5166L161.263 45.2291C162.117 46.7043 164.009 47.2089 165.487 46.356L173.907 41.4987C175.385 40.6459 175.891 38.7586 175.037 37.2834Z" fill="white"/>
<path d="M158.247 16.1612L159.888 17.2694C161.302 18.2243 161.673 20.1424 160.716 21.5536L155.266 29.5914C154.309 31.0025 152.387 31.3724 150.973 30.4175L149.332 29.3092C147.917 28.3543 147.547 26.4363 148.503 25.0251L153.954 16.9873C154.91 15.5762 156.833 15.2063 158.247 16.1612Z" fill="white"/>
<path d="M183.992 60.6278L183.849 58.6549C183.727 56.9555 182.247 55.677 180.544 55.7995L170.844 56.4967C169.141 56.6191 167.86 58.096 167.982 59.7954L168.125 61.7683C168.247 63.4677 169.727 64.7461 171.431 64.6237L181.13 63.9265C182.833 63.8041 184.115 62.3272 183.992 60.6278Z" fill="white"/>
<path d="M18.4971 192.394C9.15464 192.394 2.16214 185.554 2.16214 176.991C2.16214 168.485 9.15464 161.588 18.4971 161.588C27.8395 161.588 34.832 168.485 34.832 176.991C34.832 185.497 27.8395 192.394 18.4971 192.394ZM18.4971 185.21C22.9104 185.21 26.4066 181.646 26.4066 177.048C26.4066 172.393 22.9104 168.83 18.4971 168.83C14.0265 168.83 10.5875 172.393 10.5875 177.048C10.5875 181.646 14.0265 185.21 18.4971 185.21Z" fill="white"/>
<path d="M39.9291 191.762C38.1523 191.762 37.1779 190.785 37.1779 189.003V164.979C37.1779 163.197 38.1523 162.22 39.9291 162.22H43.0814C44.8582 162.22 45.8326 163.197 45.8326 164.979V168.657C46.8069 163.255 50.9337 161.588 53.4555 161.588L54.4299 161.645C55.8055 161.76 56.092 162.852 56.092 164.002V168.025C56.092 169.634 55.2896 170.324 54.086 170.151C53.5702 170.094 53.1116 170.037 52.6531 170.037C49.2142 170.037 46.0618 172.278 46.0618 179.692V189.003C46.0618 190.785 45.0875 191.762 43.3107 191.762H39.9291Z" fill="white"/>
<path d="M71.1925 205.268C66.6072 205.268 62.8244 204.233 59.7293 202.624C58.1818 201.819 57.8952 200.383 58.755 198.831L59.4428 197.566C60.3025 195.957 61.5634 195.67 63.1683 196.532C65.4036 197.681 67.8108 198.371 70.39 198.371C75.3765 198.371 78.9301 195.67 78.9301 189.807V187.623C76.8094 190.899 73.2558 192.394 69.4157 192.394C61.1049 192.394 55.316 185.439 55.316 176.991C55.316 168.542 61.1049 161.588 69.4157 161.588C73.2558 161.588 76.6947 163.082 78.8154 166.416V164.749C78.8154 163.082 79.8471 162.22 81.6239 162.22H84.7762C86.553 162.22 87.5274 163.197 87.5274 164.979V189.578C87.5274 200.9 80.0764 205.268 71.1925 205.268ZM71.4217 185.382C75.9497 185.382 78.9301 181.704 78.9874 176.991C78.9301 172.278 75.9497 168.6 71.4217 168.6C66.8365 168.6 64.028 172.45 64.028 176.991C64.028 181.589 66.8365 185.382 71.4217 185.382Z" fill="white"/>
<path d="M104.165 192.394C95.9111 192.394 90.0076 185.727 90.0076 176.991C90.0076 168.312 95.9111 161.588 104.165 161.588C108.062 161.588 111.501 163.082 113.622 166.416V164.979C113.622 163.197 114.596 162.22 116.373 162.22H119.754C121.531 162.22 122.506 163.197 122.506 164.979V189.003C122.506 190.785 121.531 191.762 119.754 191.762H116.373C114.596 191.762 113.622 190.785 113.622 189.003V187.623C111.501 190.899 108.062 192.394 104.165 192.394ZM106.228 185.267C110.756 185.267 113.736 181.704 113.736 176.991C113.736 172.278 110.756 168.715 106.228 168.715C101.585 168.715 98.8915 172.45 98.8915 176.991C98.8915 181.589 101.585 185.267 106.228 185.267Z" fill="white"/>
<path d="M129.507 191.762C127.73 191.762 126.756 190.785 126.756 189.003V164.979C126.756 163.197 127.73 162.22 129.507 162.22H132.889C134.665 162.22 135.64 163.197 135.64 164.979V166.933C137.073 163.542 140.225 161.588 144.581 161.588C152.491 161.588 155.356 167.795 155.356 174.749V189.003C155.356 190.785 154.325 191.762 152.548 191.762H149.224C147.447 191.762 146.472 190.785 146.472 189.003V175.382C146.472 171.243 144.868 168.83 141.83 168.83C138.792 168.83 135.64 171.186 135.64 176.703V189.003C135.64 190.785 134.665 191.762 132.889 191.762H129.507Z" fill="white"/>
<path d="M163.736 158.714C160.469 158.714 158.406 156.703 158.406 154.116C158.406 151.473 160.298 149.461 163.736 149.461C167.118 149.461 169.067 151.473 169.067 154.116C169.067 156.703 167.003 158.714 163.736 158.714ZM162.074 191.762C160.298 191.762 159.323 190.785 159.323 189.003V164.979C159.323 163.197 160.298 162.22 162.074 162.22H165.399C167.175 162.22 168.207 163.197 168.207 164.979V189.003C168.207 190.785 167.175 191.762 165.399 191.762H162.074Z" fill="white"/>
<path d="M173.493 191.762C171.716 191.762 170.742 190.785 170.742 189.003V188.658C170.742 187.279 171.086 186.302 172.06 185.21L187.02 169.117H174.238C172.461 169.117 171.487 168.14 171.487 166.358V164.979C171.487 163.197 172.461 162.22 174.238 162.22H196.935C198.712 162.22 199.686 163.197 199.686 164.979V165.381C199.686 166.761 199.342 167.738 198.368 168.83L183.466 184.865H197.91C199.686 184.865 200.718 185.842 200.718 187.623V189.003C200.661 190.785 199.686 191.762 197.91 191.762H173.493Z" fill="white"/>
<path d="M217.808 192.394C207.262 192.394 200.842 185.554 200.842 177.106C200.842 168.772 207.09 161.588 217.005 161.588C225.374 161.588 232.251 166.646 232.653 176.071C232.71 177.738 231.564 178.485 229.844 178.485H209.325C209.211 181.991 212.707 185.382 218.381 185.382C220.502 185.382 222.68 184.865 224.915 183.6C226.463 182.738 227.723 182.853 228.812 184.175L229.443 184.98C230.589 186.359 230.475 187.911 228.927 189.06C225.546 191.532 221.591 192.394 217.808 192.394ZM209.554 173.542H224.342C223.539 169.577 220.158 168.312 217.12 168.312C214.025 168.312 210.529 169.692 209.554 173.542Z" fill="white"/>
<path d="M238.804 178.255C237.429 178.255 236.626 177.566 236.454 176.186L234.448 155.036V153.714C234.448 152.335 235.251 151.53 236.626 151.53H242.874C244.306 151.53 245.052 152.335 245.052 153.714V155.036L243.046 176.186C242.874 177.566 242.071 178.255 240.753 178.255H238.804ZM239.721 192.394C236.569 192.394 234.276 190.267 234.276 187.394C234.276 184.52 236.569 182.278 239.721 182.278C242.816 182.278 245.224 184.52 245.224 187.394C245.224 190.267 242.816 192.394 239.721 192.394Z" fill="white"/>
</svg>
